<mxfile host="app.diagrams.net" agent="Mozilla/5.0 (Windows NT 10.0; Win64; x64) AppleWebKit/537.36 (KHTML, like Gecko) Chrome/127.0.0.0 Safari/537.36 OPR/113.0.0.0" version="24.7.17">
  <diagram name="Page-1" id="iBPh0Nl1f9ju7iRPAxg8">
    <mxGraphModel dx="1187" dy="596" grid="1" gridSize="10" guides="1" tooltips="1" connect="1" arrows="1" fold="1" page="1" pageScale="1" pageWidth="850" pageHeight="1100" math="0" shadow="0">
      <root>
        <mxCell id="0" />
        <mxCell id="1" parent="0" />
        <mxCell id="aPyXYFt1DZSLlQ3bdi5s-6" style="edgeStyle=orthogonalEdgeStyle;rounded=0;orthogonalLoop=1;jettySize=auto;html=1;strokeColor=#FFFFFF;" edge="1" parent="1" source="aPyXYFt1DZSLlQ3bdi5s-1" target="aPyXYFt1DZSLlQ3bdi5s-2">
          <mxGeometry relative="1" as="geometry" />
        </mxCell>
        <mxCell id="aPyXYFt1DZSLlQ3bdi5s-1" value="&lt;font color=&quot;#ffffff&quot;&gt;Loading&lt;/font&gt;" style="rounded=0;whiteSpace=wrap;html=1;fillColor=#CE2EE7;strokeColor=#9673a6;gradientColor=default;" vertex="1" parent="1">
          <mxGeometry x="360" y="120" width="160" height="80" as="geometry" />
        </mxCell>
        <mxCell id="aPyXYFt1DZSLlQ3bdi5s-7" style="edgeStyle=orthogonalEdgeStyle;rounded=0;orthogonalLoop=1;jettySize=auto;html=1;strokeColor=#FFFFFF;" edge="1" parent="1" source="aPyXYFt1DZSLlQ3bdi5s-2" target="aPyXYFt1DZSLlQ3bdi5s-3">
          <mxGeometry relative="1" as="geometry" />
        </mxCell>
        <mxCell id="aPyXYFt1DZSLlQ3bdi5s-2" value="&lt;font color=&quot;#ffffff&quot;&gt;Sortng&lt;/font&gt;" style="rounded=0;whiteSpace=wrap;html=1;fillColor=#CE2EE7;strokeColor=#9673a6;gradientColor=default;" vertex="1" parent="1">
          <mxGeometry x="600" y="120" width="160" height="80" as="geometry" />
        </mxCell>
        <mxCell id="aPyXYFt1DZSLlQ3bdi5s-9" style="edgeStyle=orthogonalEdgeStyle;rounded=0;orthogonalLoop=1;jettySize=auto;html=1;strokeColor=#FFFFFF;" edge="1" parent="1" source="aPyXYFt1DZSLlQ3bdi5s-3" target="aPyXYFt1DZSLlQ3bdi5s-8">
          <mxGeometry relative="1" as="geometry" />
        </mxCell>
        <mxCell id="aPyXYFt1DZSLlQ3bdi5s-3" value="&lt;font color=&quot;#ffffff&quot;&gt;Storing&lt;/font&gt;" style="rounded=0;whiteSpace=wrap;html=1;fillColor=#CE2EE7;strokeColor=#9673a6;gradientColor=default;" vertex="1" parent="1">
          <mxGeometry x="840" y="120" width="160" height="80" as="geometry" />
        </mxCell>
        <mxCell id="aPyXYFt1DZSLlQ3bdi5s-5" style="edgeStyle=orthogonalEdgeStyle;rounded=0;orthogonalLoop=1;jettySize=auto;html=1;strokeColor=#FFFFFF;" edge="1" parent="1" source="aPyXYFt1DZSLlQ3bdi5s-4" target="aPyXYFt1DZSLlQ3bdi5s-1">
          <mxGeometry relative="1" as="geometry" />
        </mxCell>
        <mxCell id="aPyXYFt1DZSLlQ3bdi5s-4" value="&lt;font color=&quot;#ffffff&quot;&gt;START&lt;/font&gt;" style="rounded=1;whiteSpace=wrap;html=1;fillColor=#6a00ff;strokeColor=#3700CC;gradientDirection=south;fontColor=#ffffff;" vertex="1" parent="1">
          <mxGeometry x="120" y="120" width="160" height="80" as="geometry" />
        </mxCell>
        <mxCell id="aPyXYFt1DZSLlQ3bdi5s-8" value="END" style="rounded=1;whiteSpace=wrap;html=1;fillColor=#d80073;strokeColor=#A50040;align=center;verticalAlign=middle;fontFamily=Helvetica;fontSize=12;fontColor=#ffffff;gradientDirection=south;" vertex="1" parent="1">
          <mxGeometry x="1080" y="120" width="160" height="80" as="geometry" />
        </mxCell>
      </root>
    </mxGraphModel>
  </diagram>
</mxfile>
